<?xml version="1.0" encoding="utf-8"?>
<!-- Generator: Adobe Illustrator 27.5.0, SVG Export Plug-In . SVG Version: 6.00 Build 0)  -->
<svg version="1.1" xmlns="http://www.w3.org/2000/svg" xmlns:xlink="http://www.w3.org/1999/xlink" x="0px" y="0px"
	 viewBox="0 0 500 500" style="enable-background:new 0 0 500 500;" xml:space="preserve">
<g id="BACKGROUND">
	<linearGradient id="SVGID_1_" gradientUnits="userSpaceOnUse" x1="388.2399" y1="409.7231" x2="19.4057" y2="-16.4299">
		<stop  offset="0" style="stop-color:#002948"/>
		<stop  offset="1" style="stop-color:#1B4BB6"/>
	</linearGradient>
	<rect style="fill:url(#SVGID_1_);" width="500" height="500"/>
</g>
<g id="OBJECTS">
	<g>
		<g>
			<defs>
				<rect id="SVGID_00000000224739899894298590000014475162141246562732_" width="500" height="500"/>
			</defs>
			<clipPath id="SVGID_00000056414251485060979080000011306728326773222074_">
				<use xlink:href="#SVGID_00000000224739899894298590000014475162141246562732_"  style="overflow:visible;"/>
			</clipPath>
			<g style="clip-path:url(#SVGID_00000056414251485060979080000011306728326773222074_);">
				
					<linearGradient id="SVGID_00000073712876212994063220000003641209189245820088_" gradientUnits="userSpaceOnUse" x1="690.3834" y1="-429.4056" x2="420.4514" y2="-741.2866" gradientTransform="matrix(0.976 -0.6094 0.2313 0.3704 -62.1823 737.0283)">
					<stop  offset="0" style="stop-color:#142051"/>
					<stop  offset="1" style="stop-color:#1B4B8F"/>
				</linearGradient>
				<polygon style="fill:url(#SVGID_00000073712876212994063220000003641209189245820088_);" points="559.275,189.599 
					-5.144,449.199 -11,431.082 643.409,-78.301 				"/>
				
					<linearGradient id="SVGID_00000146471133472428073400000007458680192782939567_" gradientUnits="userSpaceOnUse" x1="730.0002" y1="-331.4388" x2="451.1791" y2="-653.5901" gradientTransform="matrix(1.0048 -0.6273 0.2952 0.4729 -95.4789 722.029)">
					<stop  offset="0" style="stop-color:#FF3388"/>
					<stop  offset="0.1587" style="stop-color:#FC4974"/>
					<stop  offset="0.5435" style="stop-color:#F77B47"/>
					<stop  offset="0.8361" style="stop-color:#F3992B"/>
					<stop  offset="1" style="stop-color:#F2A521"/>
				</linearGradient>
				<polygon style="opacity:0.5;fill:url(#SVGID_00000146471133472428073400000007458680192782939567_);" points="706.383,2.027 
					0,402.526 -42.464,416.582 616.003,-171.389 				"/>
				<g>
					
						<linearGradient id="SVGID_00000051366592545455693520000011812764765751583911_" gradientUnits="userSpaceOnUse" x1="273.3507" y1="133.3916" x2="379.3508" y2="306.3917">
						<stop  offset="0" style="stop-color:#F2A521"/>
						<stop  offset="0.1639" style="stop-color:#F3992B"/>
						<stop  offset="0.4565" style="stop-color:#F77B47"/>
						<stop  offset="0.8413" style="stop-color:#FC4974"/>
						<stop  offset="1" style="stop-color:#FF3388"/>
					</linearGradient>
					<path style="opacity:0.9;fill:url(#SVGID_00000051366592545455693520000011812764765751583911_);" d="M350.37,111.296
						c0,4.531-3.673,8.204-8.204,8.204c-4.531,0-8.204-3.673-8.204-8.204c0-4.531,3.673-8.204,8.204-8.204
						C346.697,103.092,350.37,106.765,350.37,111.296z M460.328,319.51c-1.498,4.66-9.582,5.034-14.392,4.777
						c-6.443-0.345-8.918,0.68-12.249-2.519c-3.132-3.007-1.953-5.721-12.076-11.044c-8.646-4.546-18.353-9.109-25.599-14.491
						c-3.687-2.738-9.326-7.152-13.273-9.504c-2.288-1.364-3.664-0.719-5.505-2.109c-1.56-1.178-8.284-9.168-10.483-10.86
						c-2.645,1.909-7.986,4.582-10.704,6.481c-2.616,1.827-6.98,6.273-10.065,6.828c-3.644,0.656-6.209-3.732-9.639-2.525
						c-2.848,1.002-4.487,2.448-4.284,3.618c0.905,5.207,3.771,13.804,3.771,20.893c0,8.858-0.923,21.74-0.516,30.414
						c0.226,4.81,1.976,7.33,0.969,8.953c-2.262,3.646-6.94,2.265-16.893,2.262c-2.086-0.001-10.932-0.125-12.368-1.961
						c-1.926-2.463-1.322-3.669,0.603-4.826c1.84-1.107,10.683-3.035,11.915-4.827c1.801-2.617,1.183-7.51,0.754-10.558
						c-1.813-12.878-10.732-43.454-9.712-46.768c1.623-5.276,5.786-13.102,8.807-17.788c-0.019,0.448-3.509-2.761-3.338-4.804
						c0.163-1.941,2.801-3.017,3.929-4.396c1.124-1.376,1.853-3.068,2.878-4.528c2.563-3.65,4.911-7.244,6.665-11.35
						c1.525-3.571,4.717-8.665,4.019-12.652c-3.017,0.716-5.579,0.928-8.7,0.928c-4.458,0-24.339-11.292-34.791-20.496l-1.884,4.38
						l-6.433-2.767l3.091-7.189c-0.623-0.924-1.038-1.778-1.186-2.533c-1.085-5.559,0.568-10.621,5.174-10.817
						c0.014-1.321,0.271-2.639,0.602-3.824c0.959-3.44,4.311-2.54,4.452-2.52c1.012-2.127,2.243-9.948,0.362-12.302
						c-6.614-8.277-9.287-19.635-4.177-31.518c6.127-14.249,20.879-21.593,32.949-16.402c12.07,5.19,16.887,20.948,10.76,35.197
						c-5.188,12.066-16.556,18.037-27.321,18.151c-4.217,0.045-6.759,6.593-7.587,8.708c0.866,0.469,1.324,0.844,2.432,1.903
						c3.469,3.319,14.711,2.475,17.755,2.325c3.193-0.158,8.16-2.625,12.273-4.398c0.137-1.342,0.278-2.683,0.443-4.014
						c0.34-2.751,0.764-6.459,2.561-8.761c1.651-2.115,4.322-2.574,6.724-3.523c3.189-1.26,3.812-1.725,4.567-4.937
						c1.49-6.345,0.198-4.269-2.693-10.025c-2.751-5.478-2.228-18.987,3.026-22.365c3.286-2.113,11.61-7.68,15.379-4.536
						c0.306-0.683,0.716,1.052,0.999,0.305c3.93,3.011,8.504,5.804,10.699,10.546c1.269,2.742,1.554,5.194,1.282,8.132
						c-0.466,5.049-2.024,7.318-3.945,11.718c-1.264,2.896-0.971,8.191,1.162,10.325c4.827,4.827,10.678,9.466,13.027,13.705
						c2.642,4.766,8.357,25.721,8.391,30.036c1.18,1.79,2.21,8.383,2.379,10.455c0.226,2.775,0.067,8.242,1.021,10.893
						c0.776,2.155,2.193,3.871,2.871,6.132c0.608,2.027,3.182,8.723,2.501,10.549c-0.973,2.607-6.444,2.889-6.909,5.724
						c-0.301,1.836,2.128,3.719,2.874,5.268c0.741,1.536,1.032,3.254,1.431,4.961c0.48,2.06,1.297,4.263,1.145,6.401
						c-0.148,2.084-1.183,3.743-0.916,5.911c9.438,3.592,18.315,9.007,24.923,16.709c3.217,3.75,16.109,16.779,18.814,18.051
						C447.031,312.574,461.686,315.287,460.328,319.51z M328.441,203.322c-0.004-1.703,0.208-3.249,0.498-4.784
						c-3.403,0.823-6.667,1.463-8.861,1.544c-4.502,0.167-17.521-1.911-24.606-4.479c1.641,7.939,27.813,14.644,30.079,13.723
						C328.648,208.066,328.449,206.553,328.441,203.322z"/>
					<g style="opacity:0.7;">
						
							<linearGradient id="SVGID_00000021818065330856352090000018012111351557238701_" gradientUnits="userSpaceOnUse" x1="208.7953" y1="272.1217" x2="352.9442" y2="272.1217">
							<stop  offset="0" style="stop-color:#77BA40"/>
							<stop  offset="1" style="stop-color:#C9DD6F"/>
						</linearGradient>
						<path style="fill:url(#SVGID_00000021818065330856352090000018012111351557238701_);" d="M346.538,322.167
							c-1.505,0.182-3.575,1.094-4.328,0.547c-0.753-0.547-5.834-2.735-8.656-6.2c-2.823-3.465-19.947-7.659-25.781-9.847
							c0,0-1.129-6.747-1.505-9.482c-0.376-2.735,2.446-1.459,1.694-3.829c-0.753-2.37-2.823-6.018-1.694-11.488
							c1.129-5.471,2.446-12.217,1.505-17.506c-0.941-5.288-0.753-5.653-1.882-7.476c-1.129-1.824-3.387-8.935-2.446-11.488
							c0.941-2.553,27.851-8.935,29.732-12.217c1.882-3.282-5.457-11.67-7.339-14.223c-1.882-2.553-0.188-2.735-0.188-3.282
							c0-0.547-9.221-4.741-11.479-9.847c-2.258-5.106-8.845-11.123-12.044-11.671c-3.199-0.547-11.855-1.459-14.49-2.735
							c-2.635-1.277-3.387-1.641-3.199-5.288c0.188-3.647-0.564-8.571-0.376-11.123c0.188-2.553-1.317-6.2-4.14-8.753
							c-2.823-2.553-7.527-3.647-9.597-5.106c-2.07-1.459-8.28,4.924-10.538,5.106c0,0-2.258,4.923-0.941,7.112
							c1.317,2.188-0.565,6.018,0.941,7.294s-0.188,4.559,1.317,5.653c1.505,1.094,2.823,2.553,3.011,4.376
							c0.188,1.824,1.317,3.465,2.634,4.924s-7.411,3.282-8.316,5.288c-0.905,2.006-5.233,9.3-6.362,12.4
							c-1.129,3.1-2.446,5.288-2.635,7.112c-0.188,1.823-2.823,9.3-3.575,11.306c-0.753,2.006-2.07,4.012-3.387,4.194
							c-1.317,0.182-17.877,0.729-19.759,0c-1.882-0.729-4.893-2.006-8.28-0.912s-4.14,1.641-5.269,2.735
							c-1.129,1.094,0.753,3.282,0,4.194c-0.753,0.912,1.317,2.006,2.446,3.465c1.129,1.459,1.882,2.371,6.022,0.912
							c4.14-1.459,5.081-2.735,6.21-2.37c1.129,0.365,22.017,6.949,25.592,3.109c3.575-3.839,3.952-8.398,5.269-9.857
							c1.317-1.459,3.011-0.729,3.011-0.729s4.14-6.929,5.081-7.841c0,0,2.528,2.37,4.087,9.118
							c1.559,6.747,0.994,11.671,2.688,14.588c1.694,2.918,0.941,15.318,2.634,18.418c1.694,3.1,2.07,4.741,1.505,7.659
							c-0.565,2.918-6.586,17.506-9.409,20.606c-2.823,3.1-7.151,11.306-7.527,14.77c-0.376,3.465-2.635,29.359-4.14,35.559
							c-1.506,6.2-4.328,10.394-6.21,12.582c-1.882,2.188-10.538,2.371-12.232,0s-6.775-2.553-8.092-0.912
							c-1.317,1.641-0.188,2.918-0.188,3.465c0,0.547-0.941,0.866-0.188,1.413c0.753,0.547,1.882,1.869,2.258,1.322
							c0.376-0.547,1.435,0.926,1.435,0.926l-0.07,0.748c0,0,1.646,2.337,2.587,2.337c0.941,0,1.505,0.365,1.505,1.094
							c0,0.729,0,0.729,0.941,1.459c1.119,0.868,1.764-0.524,2.705,0.57c0.941,1.094,3.567,2.712,4.289,4.171
							c0.722,1.459,1.286,2.006,1.851,2.188c0.564,0.182,1.882,0.182,1.882,0.912c0,0.729,2.447,1.641,3.011,1.459
							c0.565-0.182,2.446,0.594,3.011,0.024c0.564-0.571,3.952-5.494,4.516-8.229c0.565-2.735,0.565-9.482,1.694-10.759
							c1.129-1.276,15.055-23.159,15.807-31.182c0.753-8.023-0.075-12.217,0.809-14.041c0.884-1.824,8.412-9.665,9.729-12.035
							c1.317-2.371,2.823-1.459,2.823-1.459s4.14,10.941,6.398,12.582c2.258,1.641,19.006,5.106,25.028,7.476
							c6.022,2.371,14.678,7.294,16.184,10.212c1.505,2.918-0.188,10.759-1.129,13.312c-0.941,2.553,0.445,4.012,1.728,4.194
							c1.283,0.182,7.116-5.653,8.622-8.753c1.505-3.1,2.823-7.112,4.705-8.57c1.882-1.459,5.081-3.647,4.893-7.659
							C352.748,324.173,348.044,321.985,346.538,322.167z M306.832,222.421c0,0,6.963,5.471,8.844,6.018
							c1.882,0.547-13.737,7.112-13.737,7.112S304.009,225.156,306.832,222.421z"/>
						
							<linearGradient id="SVGID_00000141433260718306157530000018243875715259956866_" gradientUnits="userSpaceOnUse" x1="183.5952" y1="373.0432" x2="215.9623" y2="373.0432">
							<stop  offset="0" style="stop-color:#77BA40"/>
							<stop  offset="1" style="stop-color:#C9DD6F"/>
						</linearGradient>
						
							<ellipse style="fill:url(#SVGID_00000141433260718306157530000018243875715259956866_);" cx="199.779" cy="373.043" rx="16.184" ry="15.682"/>
					</g>
					
						<linearGradient id="SVGID_00000173842699020615069770000008678315108112296617_" gradientUnits="userSpaceOnUse" x1="310.26" y1="230.4687" x2="468.417" y2="230.4687">
						<stop  offset="0" style="stop-color:#9DD375"/>
						<stop  offset="1" style="stop-color:#7EC444"/>
					</linearGradient>
					<path style="opacity:0.6;fill:url(#SVGID_00000173842699020615069770000008678315108112296617_);" d="M464.527,348.727
						c-3.032-2.393-5.359-0.286-8.348-2.732c-1.841-1.506-3.307-5.783-3.419-8.159s-1.143-7.539-1.692-9.853
						c-2.01-8.479-2.851-13.101-8.5-20.036c-1.076-1.321-3.129-4.935-3.553-6.586c-0.424-1.651,3.296-2.826,4.869-3.482
						c1.772-0.739-1.671-4.024-2.544-5.734c-0.873-1.71-2.146-3.209-2.868-4.988c-1.275-3.147-0.668-6.72-1.251-10.065
						c-0.558-3.198-2.206-6.186-2.328-9.43c-0.08-2.131,0.507-4.222,0.825-6.331c0.438-2.898,0.365-5.873-0.213-8.747
						c-0.926-4.605-3.377-8.763-4.575-13.304c1.095,0.196,2.198-0.507,2.793-1.447c0.595-0.941,2.843-0.086,2.976-1.191
						c0.322-2.672,2.794-3.349,3.238-6.004c1.251-7.488-3.243-13.429-1.619-20.845c1.252-5.719,0.511-24.938,3.845-29.75
						c-0.177-4.984-1.382-6.913,0.511-11.527c3.238-7.893-0.194-9.238,1.932-15.829c0.511-1.586,1.233-3.103,1.648-4.717
						c0.761-2.963,0.483-6.225,1.904-8.934c-0.769-2.11-0.103-4.154,0.623-6.279c0.726-2.125,1.762-4.149,2.279-6.334
						c0.494-2.086,0.499-4.253,0.502-6.396c0.01-8.119,0.021-16.239,0.031-24.358c0.004-2.828,1.809-5.24,3.171-7.719
						c1.789-3.255,2.474-7.083,2.026-10.766c0.093-0.713,0.147-1.438,0.147-2.176c0-9.165-7.43-16.595-16.595-16.595
						c-9.165,0-16.595,7.43-16.595,16.595c0,7.749,5.311,14.256,12.492,16.083c0.238,0.283,0.49,0.551,0.752,0.798
						c1.624,1.528,3.632,2.664,4.991,4.432c2.709,3.524,2.13,8.595,0.501,12.731c-1.629,4.136-4.169,7.94-5.133,12.279
						c-0.665,2.992-0.546,6.096-0.85,9.146c-0.61,6.124-2.972,12.063-6.736,16.932c-2.406-0.432-4.76-2.691-7.13-3.289
						c-5.051-1.274-10.984,1.709-13.585,6.223c-2.601,4.514-2.504,11.46-0.228,17.076c0.382,0.943-1.583,1.272-2.254,2.037
						c-0.201,0.229-0.28,1.549-0.554,1.682c-1.579,0.766-2.828-0.03-4.124-1.214c-1.296-1.184-3.335-2.195-4.832-3.112
						c-3.593-2.201-8.044-1.864-12.234-2.311c-8.58-0.916-9.986-7.812-17.137-12.64c-4.613-3.114-12.831-7.25-17.895-9.558
						c-6.766-3.084-14.119-9.235-19.975-13.817c-5.096-3.986-6.908-5.114-13.787-5.464c-2.985-0.152-5.117,0.296-5.515,1.012
						c-1.26,2.266,2.58,2.429,2.125,2.681c-2.141,0.017-2.249,0.405-1.973,1.518c0.475,1.914,0.371,2.332,2.325,2.601
						c-1.558,0.152-1.617,1.295-0.756,2.205c0.656,0.694,1.941,0.906,2.802,1.32c-2.6,0.35-2.291,2.386-0.93,2.93
						c1.361,0.544,4.093,0.491,6.628,0.607c6.653,0.304,16.023,8.874,26.234,17.152c5.836,4.732,12.456,12.752,19.847,14.104
						c1.253,0.229,2.568,0.298,3.705,0.871c2.027,1.022,2.975,3.342,4.455,5.064c4.471,5.202,13.911,5.085,16.642,11.378
						c1.813,4.177-0.44,8.865-1.313,13.333c-0.65,3.328-0.514,6.752-0.67,10.14c-0.523,11.306-7.052,21.307-6.01,27.985
						c0.579,3.713-5.992,8.141-7.741,10.17c-4.933,5.72-5.66,14.259-6.953,21.701c-1.293,7.442-1.575,15.032-2.854,22.477
						c-0.593,3.449-1.4,6.862-2.414,10.211c-0.165,0.544-0.336,1.122-0.193,1.672c0.131,0.503,0.506,0.904,0.896,1.246
						c1.182,1.036,2.641,1.754,4.183,2.059c1.192,0.235,2.646,0.37,3.183,1.459c0.231,0.468,0.223,1.013,0.215,1.535
						c-0.158,10.362,1.034,18.828,3.026,33.518c1.714,12.637,1.707,18.96,0.607,28.94c-1.1,9.981-2.814,18.246-10.146,25.107
						c-0.795,0.744-1.708,1.656-1.522,2.729c0.249,1.439,2.134,1.779,3.594,1.779c3.999-0.002,8.259-0.129,11.571-2.37
						c4.636-3.137,6.482-9.822,11.756-11.697c2.339-0.831,5.534-0.947,6.314-3.304c0.4-1.209-0.091-2.512-0.576-3.69
						c-1.575-3.828-3.223-7.767-6.172-10.671c-0.61-0.6-1.284-1.169-1.667-1.934c-0.315-0.63-0.408-1.346-0.45-2.049
						c-0.186-3.098,0.512-6.17,1.085-9.22c2.312-12.302,2.633-24.977,0.946-37.38c-0.458-3.365-1-7.051,0.786-9.939
						c4.547,0.314,8.415-3.067,11.701-6.225c1.731-1.663,3.612-4.026,2.587-6.197c4.757,4.611,14.312,14.143,19.776,10.501
						c3.51,14.605,8.702,19.024,15.786,37.036c0.942,2.396,2.689,7.603,3.238,10.119c0.438,2.008-1.845,5.481-2.047,7.527
						c-0.592,5.985-2.024,11.886-4.24,17.477c-0.424,1.068-0.884,2.225-0.581,3.334c0.403,1.473,1.973,2.269,3.421,2.757
						c2.962,0.999,6.236,1.455,9.2,0.463c3.91-1.309,6.629-4.899,8.373-8.636c1.744-3.737,2.767-7.791,4.686-11.441
						c1.633-3.107,3.902-5.899,5.073-9.208C469.242,354.47,467.282,350.902,464.527,348.727z"/>
					
						<linearGradient id="SVGID_00000044164933220187789710000017196348273597059475_" gradientUnits="userSpaceOnUse" x1="88.0558" y1="316.1318" x2="454.0812" y2="316.1318">
						<stop  offset="0" style="stop-color:#F2A921"/>
						<stop  offset="1" style="stop-color:#F2CE21"/>
					</linearGradient>
					<path style="opacity:0.9;fill:url(#SVGID_00000044164933220187789710000017196348273597059475_);" d="M450.326,281.1
						c-1.33,4.324-2.002,7.972-3.442,12.261c-3.304,9.841,0.47,17.844-4.255,27.087c-1.802,3.525-5.306,8.94-8.002,11.84
						c-6.862,7.382-12.387,10.361-21.515,14.634c-5.946,2.783-13.84,10.162-19.446,13.578c-0.899,0.548-1.832,1.129-2.375,2.031
						c-1.457,2.417,0.568,5.359,2.322,7.57c5.872,7.402,2.505,11.453,10.679,18.982c1.365,1.257,1.876,8.799,1.081,10.476
						c-0.738,1.556-3.464,3.603-4.881,4.582c-8.914,6.158-16.759,10.806-26.53,15.488c-2.222,1.064-7.177,3.153-9.51,2.363
						c-1.347-0.456-1.085-4.416-1.388-5.805c-1.327-6.069-4.054-6.584-0.574-10.468c3.003-3.352,5.725-7.791,9.966-10.827
						c0.805-0.576,1.203-2.816,1.154-3.804c-0.039-0.774-0.569-3.473-0.939-4.154c-2.796-5.163-7.319-6.202-9.075-11.368
						c-4.663,5.638-4.522,14.161-9.256,19.74c-2.624,3.093-6.58,5.05-8.496,8.625c-2.22,4.143-1.236,9.665-4.178,13.332
						c-1.372,1.709-3.403,2.735-5.394,3.649c-9.564,4.391-19.756,7.415-30.168,8.949c-0.719,0.106-1.536,0.18-2.094-0.286
						c-0.53-0.442-0.626-1.2-0.823-1.861c-0.621-2.079-2.478-3.537-3.504-5.45c-2.564-4.783-0.569-8.349,3.724-11.668
						c4.293-3.319,13.274-6.451,16.922-10.469c6.708-7.389,6.166-17.926,11.903-25.526c1.064-1.41,2.888-2.337,3.442-4.015
						c0.418-1.267,0.32-6.696,0.287-8.031c-0.062-2.53,0.033-3.789,1.436-5.895c0.578-0.868,1.986-2.142,2.292-3.139
						c0.519-1.685-1.293-2.443-1.962-4.074c-2.508-6.118-3.293-9.381-0.619-15.429c2.395-5.416,9.225-10.881,12.763-15.631
						c2.226-2.989,3.598-6.908,6.31-9.465c3.99-3.762,7.993-6.089,10.316-11.056c-4.153,0.067-8.306,0.134-12.459,0.201
						c-1.114,0.018-2.254,0.041-3.296,0.434c-1.517,0.572-2.648,1.859-3.557,3.202c-4.341,6.413-4.899,13.262-9.79,19.266
						c-4.938,6.061-10.899,7.6-20.758,11.862c-4.453,1.924-6.596,1.506-11.364,0.614c-1.502-0.281-4.601,1.449-6.023,2.008
						c-3.429,1.347-3.902,5.309-6.021,8.323c-1.774,2.523-6.103,2.267-8.893,3.58c-2.561,1.205-4.485,1.9-7.314,2.008
						c-1.705,0.065-6.045,2.134-7.6,1.434c-2.433-1.095-2.365-3.582-2.271-5.911c-28.54,20.625-128.009,87.081-128.657,87.508
						c-8.903,5.862-26.673,0.287-33.557-2.454c-6.883-2.74-4.015-7.011-1.147-10.166c2.868-3.155,12.926,3.078,16.348,4.015
						c5.608,1.536,15.42,3.414,21.403,0.703c2.093-0.948,102.121-69.619,124.078-84.698c-2.273-2.773-1.774-7.585-0.529-8.705
						c3.758-3.381,5.772-8.986,10.355-10.121c6.255-1.549,5.814-6.391,10.443-6.385c1.958,0.003,3.945,0.418,5.855-0.016
						c1.661-0.377,3.109-1.364,4.512-2.331c4.973-3.427,9.946-6.855,14.92-10.283c5.539-3.818,3.968-12.849,5.122-19.477
						c1.194-6.854,3.131-13.554,5.065-20.237c0.735-2.539,2.322-3.044,2.65-5.666c0.394-3.149,2.48-5.789,4.487-8.249
						c1.37-1.68,2.74-3.359,4.11-5.039c0.977-1.197,2.01-2.569,1.867-4.107c-0.043-0.46-0.249-0.967-0.687-1.112
						c-0.256-0.085-0.536-0.025-0.795,0.049c-1.419,0.408-2.898,1.259-4.272,0.718c-0.953-0.375-1.535-1.321-2.049-2.206
						c-1.003-1.726-2.569-2.092-3.571-3.818c-0.63-1.084-1.367-2.256-2.566-2.62c-0.67-0.204-1.392-0.119-2.086-0.214
						c-0.694-0.095-1.445-0.466-1.609-1.147c-0.069-0.288,1.466-5.261,1.124-6.75c-0.328-1.427-1.46-2.596-1.65-4.048
						c-0.137-1.039,0.225-2.145-0.161-3.12c-0.51-1.289-2.062-1.774-3.046-2.752c-1.545-1.536-1.479-4.011-1.308-6.183
						c0.293-3.717,0.603-7.507,2.039-10.948c0.638-1.528,1.49-2.963,2.489-4.283c1.294-1.711,2.846-3.24,4.647-4.404
						c5.758-3.721,13.293-4.487,19.948-2.844c6.656,1.643,12.641,6.705,14.314,13.353c0.621,2.466,0.652,5.048,1.23,7.525
						c0.688,2.952,2.161,5.717,4.226,7.935c0.781,0.839,1.859,1.658,2.967,1.366c0.694-0.183,1.202-0.762,1.651-1.321
						c1.926-2.397,3.725-5.072,6.462-6.473c4.358-2.23,9.73-0.53,13.868,2.087c4.138,2.616,7.764,6.133,12.318,7.931
						c1.627,0.642,3.627,1.35,3.957,3.068c0.126,0.653-0.037,1.323-0.087,1.986c-0.227,2.994,1.839,5.672,4.091,7.659
						c2.252,1.987,4.865,3.694,6.4,6.275c1.977,3.323,1.7,7.844-0.668,10.901c4.165,0.628,8.013,2.209,11.431,4.672
						c0.95,0.684,1.869,1.44,2.952,1.884c1.79,0.733,3.804,0.534,5.729,0.723c3.291,0.323,6.341,5.509,9.314,6.955
						c5.081,2.47,10.084,4.347,12.476,9.465C455.469,273.583,451.657,276.776,450.326,281.1z M100.679,439.456
						c-6.972,0-12.623,0.903-12.623,2.016v6.101c0,1.113,5.652,2.016,12.623,2.016c6.972,0,12.623-0.903,12.623-2.016v-6.101
						C113.303,440.358,107.651,439.456,100.679,439.456z"/>
				</g>
				
					<linearGradient id="SVGID_00000084510630202127400420000014101429245595991686_" gradientUnits="userSpaceOnUse" x1="467.6136" y1="280.8005" x2="200.2462" y2="-28.1172" gradientTransform="matrix(1.0858 -0.4735 0.2228 0.511 -125.4367 573.884)">
					<stop  offset="0" style="stop-color:#F2A521"/>
					<stop  offset="0.1639" style="stop-color:#F3992B"/>
					<stop  offset="0.4565" style="stop-color:#F77B47"/>
					<stop  offset="0.8413" style="stop-color:#FC4974"/>
					<stop  offset="1" style="stop-color:#FF3388"/>
				</linearGradient>
				<polygon style="opacity:0.6;fill:url(#SVGID_00000084510630202127400420000014101429245595991686_);" points="608.824,428.052 
					65.922,664.8 11.688,540.432 554.59,303.684 				"/>
				
					<linearGradient id="SVGID_00000122687402463643430470000014844134585339990199_" gradientUnits="userSpaceOnUse" x1="413.3281" y1="193.4964" x2="228.8673" y2="-19.6306" gradientTransform="matrix(0.8109 -0.3536 0.2228 0.511 62.6323 492.0452)">
					<stop  offset="0" style="stop-color:#F2A521"/>
					<stop  offset="0.1639" style="stop-color:#F3992B"/>
					<stop  offset="0.4565" style="stop-color:#F77B47"/>
					<stop  offset="0.8413" style="stop-color:#FC4974"/>
					<stop  offset="1" style="stop-color:#FF3388"/>
				</linearGradient>
				<polygon style="opacity:0.6;fill:url(#SVGID_00000122687402463643430470000014844134585339990199_);" points="517.627,420.607 
					310.935,515.42 190.04,470.226 534.744,366.106 				"/>
				
					<linearGradient id="SVGID_00000154389095145296910140000001947962135181636025_" gradientUnits="userSpaceOnUse" x1="730.4988" y1="-546.8418" x2="420.4569" y2="-905.0659" gradientTransform="matrix(0.5451 -0.4436 0.3519 0.4324 353.6699 559.246)">
					<stop  offset="0" style="stop-color:#F2A521"/>
					<stop  offset="0.1639" style="stop-color:#F3992B"/>
					<stop  offset="0.4565" style="stop-color:#F77B47"/>
					<stop  offset="0.8413" style="stop-color:#FC4974"/>
					<stop  offset="1" style="stop-color:#FF3388"/>
				</linearGradient>
				<polygon style="opacity:0.6;fill:url(#SVGID_00000154389095145296910140000001947962135181636025_);" points="635.31,-3.196 
					228.365,103.295 540.994,-126.375 				"/>
				
					<linearGradient id="SVGID_00000128444293144661456030000006490886049297863603_" gradientUnits="userSpaceOnUse" x1="1724.8364" y1="-289.8522" x2="1679.0063" y2="-342.8044" gradientTransform="matrix(-0.5555 0.2423 0.2229 0.511 1253.7124 33.6714)">
					<stop  offset="0" style="stop-color:#F2A521"/>
					<stop  offset="0.1639" style="stop-color:#F3992B"/>
					<stop  offset="0.4565" style="stop-color:#F77B47"/>
					<stop  offset="0.8413" style="stop-color:#FC4974"/>
					<stop  offset="1" style="stop-color:#FF3388"/>
				</linearGradient>
				<polygon style="opacity:0.6;fill:url(#SVGID_00000128444293144661456030000006490886049297863603_);" points="193.187,289.571 
					283.639,275.728 208.892,308.079 				"/>
				
					<linearGradient id="SVGID_00000027605259314782542260000003278400692399864751_" gradientUnits="userSpaceOnUse" x1="435.1196" y1="215.152" x2="389.2885" y2="162.1984" gradientTransform="matrix(1.0132 -0.5134 0.5395 1.0646 -290.8514 442.156)">
					<stop  offset="0" style="stop-color:#F2A521"/>
					<stop  offset="0.1639" style="stop-color:#F3992B"/>
					<stop  offset="0.4565" style="stop-color:#F77B47"/>
					<stop  offset="0.8413" style="stop-color:#FC4974"/>
					<stop  offset="1" style="stop-color:#FF3388"/>
				</linearGradient>
				<polygon style="opacity:0.6;fill:url(#SVGID_00000027605259314782542260000003278400692399864751_);" points="287.71,370.004 
					162.563,489.765 298.509,420.322 				"/>
				
					<linearGradient id="SVGID_00000047756052895556485550000000223373155139204764_" gradientUnits="userSpaceOnUse" x1="-121.844" y1="70.6523" x2="-167.6806" y2="17.6924" gradientTransform="matrix(0.5365 -0.1464 0.1654 0.6064 174.6945 325.5356)">
					<stop  offset="0" style="stop-color:#F2A521"/>
					<stop  offset="0.1639" style="stop-color:#F3992B"/>
					<stop  offset="0.4565" style="stop-color:#F77B47"/>
					<stop  offset="0.8413" style="stop-color:#FC4974"/>
					<stop  offset="1" style="stop-color:#FF3388"/>
				</linearGradient>
				<polygon style="opacity:0.6;fill:url(#SVGID_00000047756052895556485550000000223373155139204764_);" points="112.824,355.713 
					72.492,386.656 144.53,366.735 				"/>
				
					<linearGradient id="SVGID_00000158024913288193579300000018418694983176303262_" gradientUnits="userSpaceOnUse" x1="594.6298" y1="64.5573" x2="510.3849" y2="-32.7796" gradientTransform="matrix(0.5365 -0.1464 0.1654 0.6064 174.6945 325.5356)">
					<stop  offset="0" style="stop-color:#F2A521"/>
					<stop  offset="0.1639" style="stop-color:#F3992B"/>
					<stop  offset="0.4565" style="stop-color:#F77B47"/>
					<stop  offset="0.8413" style="stop-color:#FC4974"/>
					<stop  offset="1" style="stop-color:#FF3388"/>
				</linearGradient>
				<polygon style="opacity:0.6;fill:url(#SVGID_00000158024913288193579300000018418694983176303262_);" points="489.344,221.564 
					415.217,278.436 547.617,241.823 				"/>
				
					<linearGradient id="SVGID_00000022542143803454430500000002047228454180365218_" gradientUnits="userSpaceOnUse" x1="2913.3142" y1="-84.1582" x2="2867.2288" y2="-137.4054" gradientTransform="matrix(-0.3248 0.1636 0.2203 0.4373 1445.979 -143.1918)">
					<stop  offset="0" style="stop-color:#F2A521"/>
					<stop  offset="0.1639" style="stop-color:#F3992B"/>
					<stop  offset="0.4565" style="stop-color:#F77B47"/>
					<stop  offset="0.8413" style="stop-color:#FC4974"/>
					<stop  offset="1" style="stop-color:#FF3388"/>
				</linearGradient>
				<polygon style="opacity:0.6;fill:url(#SVGID_00000022542143803454430500000002047228454180365218_);" points="469.989,274.568 
					504.399,274.107 460.417,296.035 				"/>
				
					<linearGradient id="SVGID_00000027588785812150378900000001702989590047477389_" gradientUnits="userSpaceOnUse" x1="451.8393" y1="1211.8719" x2="405.7475" y2="1158.6173" gradientTransform="matrix(0.2836 -0.353 -0.3817 -0.3067 783.1254 710.0294)">
					<stop  offset="0" style="stop-color:#F2A521"/>
					<stop  offset="0.1639" style="stop-color:#F3992B"/>
					<stop  offset="0.4565" style="stop-color:#F77B47"/>
					<stop  offset="0.8413" style="stop-color:#FC4974"/>
					<stop  offset="1" style="stop-color:#FF3388"/>
				</linearGradient>
				<polygon style="opacity:0.6;fill:url(#SVGID_00000027588785812150378900000001702989590047477389_);" points="459.332,192.615 
					432.171,214.86 470.659,167.278 				"/>
			</g>
		</g>
		<g>
			<g>
				<text transform="matrix(1 0 0 1 61.2215 134.5173)" style="fill:#FFEEFF; font-family:'BebasNeue-Bold'; font-size:47.2119px;">Sports</text>
				
					<text transform="matrix(1 0 0 1 62.9061 92.4738)" style="fill:#FFEEFF; font-family:'BebasNeueRegular'; font-size:24.4593px; letter-spacing:4;">NATIONAL</text>
				
					<text transform="matrix(1 0 0 1 62.9061 156.4279)" style="fill:#FFEEFF; font-family:'BebasNeueRegular'; font-size:19.3477px; letter-spacing:3;">DAY</text>
			</g>
			<rect x="101.429" y="147.92" style="fill:#FFEEFF;" width="66.412" height="1.946"/>
		</g>
	</g>
</g>
</svg>
